<svg xmlns="http://www.w3.org/2000/svg" viewBox="1248.728 88.7 87.391 78.748">
  <defs>
    <style>
      .cls-1 {
        fill: #b7bbbd;
      }

      .cls-2 {
        fill: #ababab;
      }

      .cls-3 {
        fill: #bec8dc;
      }

      .cls-4 {
        fill: #f76720;
      }

      .cls-5 {
        fill: #d0eeef;
      }

      .cls-6 {
        fill: #d92622;
      }

      .cls-7 {
        fill: #fff;
      }
    </style>
  </defs>
  <g id="software" transform="translate(1248.728 88.7)">
    <path id="Path_129" data-name="Path 129" class="cls-1" d="M0,25.319V36.843l58.1,3.841L56.18,25.319Z" transform="translate(0 -25.319)"/>
    <path id="Path_130" data-name="Path 130" class="cls-2" d="M360.354,25.319H329.143V40.684l31.211-3.841Z" transform="translate(-272.963 -25.319)"/>
    <rect id="Rectangle_32" data-name="Rectangle 32" class="cls-3" width="87.391" height="67.224" transform="translate(0 11.524)"/>
    <circle id="Ellipse_27" data-name="Ellipse 27" class="cls-4" cx="1.441" cy="1.441" r="1.441" transform="translate(70.393 4.321)"/>
    <circle id="Ellipse_28" data-name="Ellipse 28" class="cls-5" cx="1.441" cy="1.441" r="1.441" transform="translate(62.518 4.321)"/>
    <circle id="Ellipse_29" data-name="Ellipse 29" class="cls-6" cx="1.441" cy="1.441" r="1.441" transform="translate(78.268 4.321)"/>
    <path id="Path_131" data-name="Path 131" class="cls-7" d="M164.777,175.643V167.96h-7.165a16.826,16.826,0,0,0-2.115-5.088l5.071-5.071-5.432-5.432-5.071,5.071a16.815,16.815,0,0,0-5.088-2.115V148.16h-7.683v7.165a16.827,16.827,0,0,0-5.088,2.115l-5.071-5.071L121.7,157.8l5.071,5.071a16.814,16.814,0,0,0-2.115,5.088h-7.164v7.683h7.164a16.827,16.827,0,0,0,2.115,5.088L121.7,185.8l5.432,5.432,5.071-5.071a16.815,16.815,0,0,0,5.088,2.115v7.164h7.683v-7.164a16.827,16.827,0,0,0,5.088-2.115l5.071,5.071,5.432-5.432L155.5,180.73a16.815,16.815,0,0,0,2.115-5.088h7.165Zm-23.641,5.378a9.219,9.219,0,1,1,9.219-9.219A9.219,9.219,0,0,1,141.136,181.02Z" transform="translate(-97.44 -127.193)"/>
  </g>
</svg>
