<svg xmlns="http://www.w3.org/2000/svg" viewBox="925.572 88.882 68.745 78.566">
  <defs>
    <style>
      .cls-1 {
        fill: #ccd0d2;
      }

      .cls-2 {
        fill: #adb0b2;
      }

      .cls-3 {
        fill: #b7bbbd;
      }

      .cls-4 {
        fill: #c2c5c7;
      }

      .cls-5 {
        fill: #b2b5b7;
      }

      .cls-6 {
        fill: #e4e7e7;
      }
    </style>
  </defs>
  <g id="server" transform="translate(925.572 88.882)">
    <path id="Path_117" data-name="Path 117" class="cls-1" d="M17.5,52.505v49.1c0,8.132,15.389,14.731,34.373,14.731s34.373-6.6,34.373-14.731v-49.1Z" transform="translate(-17.502 -37.774)"/>
    <path id="Path_118" data-name="Path 118" class="cls-2" d="M221.226,109.92a2.455,2.455,0,1,0-2.455-2.455A2.453,2.453,0,0,0,221.226,109.92Zm0,12.276a2.455,2.455,0,1,0,2.455,2.455A2.455,2.455,0,0,0,221.226,122.2Zm0,17.186a2.455,2.455,0,1,0,2.455,2.455A2.453,2.453,0,0,0,221.226,139.383Z" transform="translate(-162.302 -75.548)"/>
    <path id="Path_119" data-name="Path 119" class="cls-3" d="M51.875,122.155c18.984,0,34.373-7.11,34.373-15.882a7.5,7.5,0,0,0-.145-1.323c-1.458,8.151-16.212,14.559-34.228,14.559S19.108,113.1,17.647,104.949a7.5,7.5,0,0,0-.145,1.323C17.5,115.042,32.888,122.155,51.875,122.155Zm0,14.54c-18.016,0-32.767-6.4-34.228-14.559a7.5,7.5,0,0,0-.145,1.323c0,8.767,15.389,15.883,34.373,15.883s34.373-7.11,34.373-15.883a7.481,7.481,0,0,0-.145-1.323C84.646,130.284,69.893,136.695,51.875,136.695Z" transform="translate(-17.502 -75.504)"/>
    <path id="Path_120" data-name="Path 120" class="cls-4" d="M24.867,110.7v-58.2H17.5v49.1C17.5,105.041,20.266,108.2,24.867,110.7Z" transform="translate(-17.502 -37.774)"/>
    <g id="Group_43" data-name="Group 43" transform="translate(0 29.443)">
      <path id="Path_121" data-name="Path 121" class="cls-5" d="M24.867,133.256v-2.661c-4.031-2.374-6.649-5.281-7.221-8.465a7.5,7.5,0,0,0-.145,1.323C17.5,127.158,20.266,130.556,24.867,133.256Zm0-17.186v-2.659c-4.031-2.374-6.649-5.284-7.221-8.47a7.556,7.556,0,0,0-.145,1.326C17.5,109.972,20.266,113.369,24.867,116.07Z" transform="translate(-17.502 -104.941)"/>
    </g>
    <path id="Path_122" data-name="Path 122" class="cls-6" d="M51.875,0C70.858,0,86.247,6.6,86.247,14.731S70.858,29.462,51.875,29.462,17.5,22.865,17.5,14.731,32.888,0,51.875,0Z" transform="translate(-17.502)"/>
  </g>
</svg>
