<svg xmlns="http://www.w3.org/2000/svg" viewBox="581.317 88.522 93.421 78.925">
  <defs>
    <style>
      .cls-1 {
        fill: #464655;
      }

      .cls-2 {
        fill: #fff;
      }

      .cls-3 {
        fill: #bec8dc;
      }

      .cls-4 {
        fill: #afbbd0;
      }

      .cls-5 {
        fill: #96a5b9;
      }

      .cls-6 {
        fill: #e4eaf6;
      }

      .cls-7 {
        fill: #ff6469;
      }
    </style>
  </defs>
  <g id="editor" transform="translate(581.317 88.522)">
    <path id="Path_47" data-name="Path 47" class="cls-1" d="M90.2,39.724H3.221A3.221,3.221,0,0,0,0,42.945V94.488H93.421V42.945A3.221,3.221,0,0,0,90.2,39.724ZM88.589,89.656H4.832v-45.1H88.589Z" transform="translate(0 -39.724)"/>
    <g id="Group_30" data-name="Group 30" transform="translate(4.832 4.832)">
      <path id="Path_48" data-name="Path 48" class="cls-2" d="M152.515,115.209a.8.8,0,0,1,.805.805h2.416V113.6h-3.221a.805.805,0,0,1,0-1.611h3.221v-10.47h-14.5v14.5h10.47A.805.805,0,0,1,152.515,115.209Z" transform="translate(-120.301 -95.075)"/>
      <path id="Path_49" data-name="Path 49" class="cls-2" d="M26.483,111.307H110.24v-45.1H26.483Zm35.435-4.027H58.7a.805.805,0,0,1,0-1.611h3.221a.805.805,0,1,1,0,1.611ZM58.7,99.226a.8.8,0,0,1,.805.805v3.221a.805.805,0,1,1-1.611,0v-3.221A.805.805,0,0,1,58.7,99.226Zm-.805-2.416V93.589a.805.805,0,1,1,1.611,0V96.81a.805.805,0,1,1-1.611,0Zm10.47,10.47H65.14a.805.805,0,1,1,0-1.611h3.221a.805.805,0,1,1,0,1.611Zm13.691-4.027a.805.805,0,1,1-1.611,0v-3.221a.805.805,0,0,1,1.611,0Zm0-6.443a.805.805,0,1,1-1.611,0V93.589a.805.805,0,1,1,1.611,0Zm0-6.443a.805.805,0,1,1-1.611,0V87.146a.805.805,0,1,1,1.611,0ZM89.3,91.978V71.039a1.611,1.611,0,0,1,1.611-1.611h14.5a1.611,1.611,0,0,1,1.611,1.611v35.436a1.611,1.611,0,0,1-1.611,1.611h-14.5a1.611,1.611,0,0,1-1.611-1.611ZM78.025,83.12h3.221a.805.805,0,0,1,0,1.611H78.025a.805.805,0,1,1,0-1.611Zm0,22.55h3.221a.805.805,0,0,1,0,1.611H78.025a.805.805,0,1,1,0-1.611ZM71.583,83.12H74.8a.805.805,0,0,1,0,1.611H71.583a.805.805,0,1,1,0-1.611Zm0,22.55H74.8a.805.805,0,0,1,0,1.611H71.583a.805.805,0,1,1,0-1.611ZM44.2,71.039a1.61,1.61,0,0,1,1.611-1.611H63.529a1.61,1.61,0,0,1,1.611,1.611V83.12h3.221a.805.805,0,1,1,0,1.611H65.14v4.027a1.61,1.61,0,0,1-.08.5l4.227,3.787a.647.647,0,0,1-.172,1.074l-1.6.7,1.431,3.258a.806.806,0,0,1-1.475.648l-1.431-3.259-1.6.7a.646.646,0,0,1-.906-.6l.068-5.206c-.023,0-.045,0-.068,0H59.5a.805.805,0,1,1-1.611,0H45.811A1.61,1.61,0,0,1,44.2,88.757V71.039Zm-14.5,0a1.611,1.611,0,0,1,1.611-1.611h4.832a1.611,1.611,0,0,1,1.611,1.611v35.436a1.611,1.611,0,0,1-1.611,1.611H31.315a1.611,1.611,0,0,1-1.611-1.611Z" transform="translate(-26.483 -66.207)"/>
    </g>
    <path id="Path_50" data-name="Path 50" class="cls-3" d="M0,346.3a3.221,3.221,0,0,0,3.221,3.221H90.2a3.221,3.221,0,0,0,3.221-3.221v-6.443H0Zm46.711-4.027a2.416,2.416,0,1,1-2.416,2.416A2.416,2.416,0,0,1,46.711,342.278Z" transform="translate(0 -285.098)"/>
    <path id="Path_51" data-name="Path 51" class="cls-4" d="M177.655,418.537h28.59l-1.007-8.054H178.662Z" transform="translate(-145.239 -342.833)"/>
    <path id="Path_52" data-name="Path 52" class="cls-3" d="M169.335,454.621a1.611,1.611,0,1,0,0,3.222h28.993a1.611,1.611,0,1,0,0-3.222H169.335Z" transform="translate(-137.121 -378.918)"/>
    <g id="Group_31" data-name="Group 31" transform="translate(33.422 57.18)">
      <path id="Path_53" data-name="Path 53" class="cls-5" d="M183.172,396.049h26.577l-.4-3.221H183.575Z" transform="translate(-183.172 -385.58)"/>
      <ellipse id="Ellipse_5" data-name="Ellipse 5" class="cls-5" cx="2.416" cy="2.416" rx="2.416" ry="2.416" transform="translate(10.872)"/>
    </g>
    <path id="Path_54" data-name="Path 54" class="cls-3" d="M45.749,122.519h4.832a1.611,1.611,0,0,0,1.611-1.611V85.473a1.611,1.611,0,0,0-1.611-1.611H45.749a1.611,1.611,0,0,0-1.611,1.611v35.436A1.611,1.611,0,0,0,45.749,122.519Zm1.611-35.436H48.97a1.611,1.611,0,0,1,0,3.222H47.359a1.611,1.611,0,0,1,0-3.222Zm0,4.832H48.97a1.611,1.611,0,0,1,0,3.222H47.359a1.611,1.611,0,0,1,0-3.222Zm0,4.832H48.97a1.611,1.611,0,1,1,0,3.222H47.359a1.611,1.611,0,1,1,0-3.222Zm0,4.832H48.97a1.611,1.611,0,1,1,0,3.222H47.359a1.611,1.611,0,1,1,0-3.222Zm0,4.832H48.97a1.611,1.611,0,0,1,0,3.222H47.359a1.611,1.611,0,0,1,0-3.222Zm-1.611,8.054a1.611,1.611,0,0,1,1.611-1.611H48.97a1.611,1.611,0,0,1,1.611,1.611v3.221A1.611,1.611,0,0,1,48.97,119.3H47.36a1.611,1.611,0,0,1-1.611-1.611Z" transform="translate(-36.084 -75.808)"/>
    <path id="Path_55" data-name="Path 55" class="cls-6" d="M54.576,104.738h1.611a1.611,1.611,0,1,0,0-3.222H54.576a1.611,1.611,0,1,0,0,3.222Z" transform="translate(-43.301 -90.241)"/>
    <path id="Path_56" data-name="Path 56" class="cls-5" d="M54.576,131.221h1.611a1.611,1.611,0,1,0,0-3.222H54.576a1.611,1.611,0,1,0,0,3.222Z" transform="translate(-43.301 -111.892)"/>
    <g id="Group_32" data-name="Group 32" transform="translate(9.664 20.939)">
      <path id="Path_57" data-name="Path 57" class="cls-6" d="M54.576,157.7h1.611a1.611,1.611,0,1,0,0-3.222H54.576a1.611,1.611,0,1,0,0,3.222Z" transform="translate(-52.965 -154.482)"/>
      <path id="Path_58" data-name="Path 58" class="cls-6" d="M54.576,184.187h1.611a1.611,1.611,0,1,0,0-3.222H54.576a1.611,1.611,0,1,0,0,3.222Z" transform="translate(-52.965 -176.133)"/>
      <path id="Path_59" data-name="Path 59" class="cls-6" d="M54.576,210.669h1.611a1.611,1.611,0,1,0,0-3.222H54.576a1.611,1.611,0,1,0,0,3.222Z" transform="translate(-52.965 -197.783)"/>
    </g>
    <path id="Path_60" data-name="Path 60" class="cls-5" d="M54.576,249.2h1.611A1.611,1.611,0,0,0,57.8,247.59v-3.221a1.611,1.611,0,0,0-1.611-1.611H54.576a1.611,1.611,0,0,0-1.611,1.611v3.221A1.611,1.611,0,0,0,54.576,249.2Z" transform="translate(-43.301 -205.712)"/>
    <g id="Group_33" data-name="Group 33" transform="translate(67.65 8.054)">
      <path id="Path_61" data-name="Path 61" class="cls-3" d="M388.476,85.473a1.611,1.611,0,0,0-1.611-1.611h-14.5a1.611,1.611,0,0,0-1.611,1.611v9.664h17.718V85.473Zm-2.416,8.054H373.174a.805.805,0,0,1,0-1.611H386.06a.805.805,0,0,1,0,1.611Zm0-3.222H373.174a.805.805,0,0,1,0-1.611H386.06a.805.805,0,1,1,0,1.611Zm0-3.221H373.174a.805.805,0,1,1,0-1.611H386.06a.805.805,0,1,1,0,1.611Z" transform="translate(-370.758 -83.862)"/>
      <path id="Path_62" data-name="Path 62" class="cls-3" d="M372.37,223.555h14.5a1.611,1.611,0,0,0,1.611-1.611v-14.5H370.759v14.5A1.611,1.611,0,0,0,372.37,223.555Zm7.248-14.5h6.443a.805.805,0,0,1,0,1.611h-6.443a.805.805,0,1,1,0-1.611Zm0,3.221h6.443a.805.805,0,0,1,0,1.611h-6.443a.805.805,0,0,1,0-1.611Zm0,3.221h6.443a.805.805,0,0,1,0,1.611h-6.443a.805.805,0,1,1,0-1.611Zm0,3.221h6.443a.805.805,0,0,1,0,1.611h-6.443a.805.805,0,1,1,0-1.611Zm-3.221-9.664h0a.805.805,0,1,1,0,1.611h0a.805.805,0,1,1,0-1.611Zm0,3.221h0a.805.805,0,1,1,0,1.611h0a.805.805,0,0,1,0-1.611Zm0,3.221h0a.805.805,0,1,1,0,1.611h0a.805.805,0,1,1,0-1.611Zm0,3.221h0a.805.805,0,1,1,0,1.611h0a.805.805,0,1,1,0-1.611Zm-3.221-9.664h0a.805.805,0,0,1,0,1.611h0a.805.805,0,1,1,0-1.611Zm0,3.221h0a.805.805,0,0,1,0,1.611h0a.805.805,0,1,1,0-1.611Zm0,3.221h0a.805.805,0,0,1,0,1.611h0a.805.805,0,1,1,0-1.611Zm0,3.221h0a.805.805,0,0,1,0,1.611h0a.805.805,0,1,1,0-1.611Z" transform="translate(-370.759 -184.898)"/>
    </g>
    <g id="Group_34" data-name="Group 34" transform="translate(67.65 9.664)">
      <path id="Path_63" data-name="Path 63" class="cls-5" d="M388.477,145.655H370.759V156.93h17.718Zm-13.691,9.664h-1.611a.805.805,0,1,1,0-1.611h1.611a.805.805,0,0,1,0,1.611Zm0-3.221h-1.611a.805.805,0,1,1,0-1.611h1.611a.805.805,0,0,1,0,1.611Zm0-3.222h-1.611a.805.805,0,1,1,0-1.611h1.611a.805.805,0,1,1,0,1.611Zm11.275,6.443h-8.054a.805.805,0,0,1,0-1.611h8.054a.805.805,0,0,1,0,1.611Zm0-3.221h-8.054a.805.805,0,1,1,0-1.611h8.054a.805.805,0,1,1,0,1.611Zm0-3.222h-8.054a.805.805,0,1,1,0-1.611h8.054a.805.805,0,1,1,0,1.611Z" transform="translate(-370.759 -135.991)"/>
      <path id="Path_64" data-name="Path 64" class="cls-5" d="M411.319,92.69h-9.664a.805.805,0,0,1,0,1.611h9.664a.805.805,0,0,0,0-1.611Z" transform="translate(-396.018 -92.69)"/>
      <path id="Path_65" data-name="Path 65" class="cls-5" d="M381.2,93.494a.805.805,0,0,1,.805-.805h-1.611a.805.805,0,1,0,0,1.611H382A.805.805,0,0,1,381.2,93.494Z" transform="translate(-377.975 -92.689)"/>
      <path id="Path_66" data-name="Path 66" class="cls-5" d="M425.754,128h-6.443a.805.805,0,1,1,0,1.611h6.443a.805.805,0,0,0,0-1.611Z" transform="translate(-410.452 -121.557)"/>
      <path id="Path_67" data-name="Path 67" class="cls-5" d="M384.418,128.805a.805.805,0,0,1,.805-.805h-4.832a.805.805,0,1,0,0,1.611h4.832A.805.805,0,0,1,384.418,128.805Z" transform="translate(-377.975 -121.557)"/>
    </g>
    <path id="Path_68" data-name="Path 68" class="cls-3" d="M414.928,154.483h-8.054a.805.805,0,0,0,0,1.611h8.054a.805.805,0,0,0,0-1.611Z" transform="translate(-331.976 -133.544)"/>
    <g id="Group_35" data-name="Group 35" transform="translate(69.261 12.886)">
      <path id="Path_69" data-name="Path 69" class="cls-5" d="M389.25,111.15a.805.805,0,0,1,.805-.805h-9.664a.805.805,0,1,0,0,1.611h9.664A.806.806,0,0,1,389.25,111.15Z" transform="translate(-379.586 -110.345)"/>
      <path id="Path_70" data-name="Path 70" class="cls-5" d="M447.4,110.345h-1.611a.805.805,0,0,1,0,1.611H447.4a.805.805,0,0,0,0-1.611Z" transform="translate(-433.713 -110.345)"/>
    </g>
    <g id="Group_36" data-name="Group 36" transform="translate(69.261 9.664)">
      <path id="Path_71" data-name="Path 71" class="cls-6" d="M391.635,93.494a.805.805,0,0,0-.805-.805h-1.611a.805.805,0,1,0,0,1.611h1.611A.805.805,0,0,0,391.635,93.494Z" transform="translate(-386.802 -92.689)"/>
      <path id="Path_72" data-name="Path 72" class="cls-6" d="M409.29,128.805a.805.805,0,0,0-.805-.805h-1.611a.805.805,0,0,0,0,1.611h1.611A.805.805,0,0,0,409.29,128.805Z" transform="translate(-401.236 -121.557)"/>
      <path id="Path_73" data-name="Path 73" class="cls-6" d="M382,154.483h-1.611a.805.805,0,1,0,0,1.611H382a.805.805,0,0,0,0-1.611Z" transform="translate(-379.586 -143.208)"/>
    </g>
    <path id="Path_74" data-name="Path 74" class="cls-3" d="M414.928,172.138h-8.054a.805.805,0,1,0,0,1.611h8.054a.805.805,0,0,0,0-1.611Z" transform="translate(-331.976 -147.977)"/>
    <path id="Path_75" data-name="Path 75" class="cls-6" d="M382,172.138h-1.611a.805.805,0,1,0,0,1.611H382a.805.805,0,0,0,0-1.611Z" transform="translate(-310.325 -147.977)"/>
    <path id="Path_76" data-name="Path 76" class="cls-3" d="M414.928,189.793h-8.054a.805.805,0,0,0,0,1.611h8.054a.805.805,0,0,0,0-1.611Z" transform="translate(-331.976 -162.411)"/>
    <g id="Group_37" data-name="Group 37" transform="translate(69.261 27.382)">
      <path id="Path_77" data-name="Path 77" class="cls-6" d="M382,189.793h-1.611a.805.805,0,1,0,0,1.611H382a.805.805,0,0,0,0-1.611Z" transform="translate(-379.586 -189.793)"/>
      <path id="Path_78" data-name="Path 78" class="cls-6" d="M380.391,235.542h0a.805.805,0,0,0,0-1.611h0a.805.805,0,1,0,0,1.611Z" transform="translate(-379.586 -225.877)"/>
      <path id="Path_79" data-name="Path 79" class="cls-6" d="M380.391,217.886h0a.805.805,0,0,0,0-1.611h0a.805.805,0,1,0,0,1.611Z" transform="translate(-379.586 -211.443)"/>
      <path id="Path_80" data-name="Path 80" class="cls-6" d="M380.391,270.852h0a.805.805,0,0,0,0-1.611h0a.805.805,0,1,0,0,1.611Z" transform="translate(-379.586 -254.745)"/>
      <path id="Path_81" data-name="Path 81" class="cls-6" d="M380.391,253.2h0a.805.805,0,0,0,0-1.611h0a.805.805,0,1,0,0,1.611Z" transform="translate(-379.586 -240.311)"/>
    </g>
    <g id="Group_38" data-name="Group 38" transform="translate(72.482 32.214)">
      <path id="Path_82" data-name="Path 82" class="cls-5" d="M398.046,235.542h0a.805.805,0,1,0,0-1.611h0a.805.805,0,0,0,0,1.611Z" transform="translate(-397.241 -230.709)"/>
      <path id="Path_83" data-name="Path 83" class="cls-5" d="M398.046,217.886h0a.805.805,0,1,0,0-1.611h0a.805.805,0,0,0,0,1.611Z" transform="translate(-397.241 -216.275)"/>
      <path id="Path_84" data-name="Path 84" class="cls-5" d="M398.046,270.852h0a.805.805,0,1,0,0-1.611h0a.805.805,0,0,0,0,1.611Z" transform="translate(-397.241 -259.577)"/>
      <path id="Path_85" data-name="Path 85" class="cls-5" d="M398.046,253.2h0a.805.805,0,1,0,0-1.611h0a.805.805,0,0,0,0,1.611Z" transform="translate(-397.241 -245.143)"/>
      <path id="Path_86" data-name="Path 86" class="cls-5" d="M415.7,235.542h6.443a.805.805,0,0,0,0-1.611H415.7a.805.805,0,0,0,0,1.611Z" transform="translate(-411.675 -230.709)"/>
      <path id="Path_87" data-name="Path 87" class="cls-5" d="M415.7,217.886h6.443a.805.805,0,0,0,0-1.611H415.7a.805.805,0,1,0,0,1.611Z" transform="translate(-411.675 -216.275)"/>
      <path id="Path_88" data-name="Path 88" class="cls-5" d="M415.7,270.852h6.443a.805.805,0,0,0,0-1.611H415.7a.805.805,0,1,0,0,1.611Z" transform="translate(-411.675 -259.577)"/>
      <path id="Path_89" data-name="Path 89" class="cls-5" d="M415.7,253.2h6.443a.805.805,0,0,0,0-1.611H415.7a.805.805,0,0,0,0,1.611Z" transform="translate(-411.675 -245.143)"/>
    </g>
    <path id="Path_90" data-name="Path 90" class="cls-6" d="M435.773,111.15a.805.805,0,0,0-.805-.805h-1.611a.805.805,0,0,0,0,1.611h1.611A.806.806,0,0,0,435.773,111.15Z" transform="translate(-353.626 -97.459)"/>
    <path id="Path_91" data-name="Path 91" class="cls-7" d="M125.2,104.8h12.08V101.58h-10.47v-14.5h14.5v10.47a.805.805,0,0,1,0,1.611v2.416h-2.416V104.8h4.027c.023,0,.045,0,.068,0l.013-.968a.647.647,0,0,1,1.078-.473l.372.334a1.611,1.611,0,0,0,.08-.5V99.164a.805.805,0,0,1,0-1.611V85.473a1.61,1.61,0,0,0-1.611-1.611H125.2a1.61,1.61,0,0,0-1.611,1.611v17.718A1.61,1.61,0,0,0,125.2,104.8Z" transform="translate(-101.036 -75.808)"/>
    <g id="Group_39" data-name="Group 39" transform="translate(36.241 21.745)">
      <path id="Path_92" data-name="Path 92" class="cls-5" d="M199.424,216.694a.8.8,0,0,0,.805-.805v-3.221a.805.805,0,0,0-1.611,0v3.221A.805.805,0,0,0,199.424,216.694Z" transform="translate(-198.619 -202.198)"/>
      <path id="Path_93" data-name="Path 93" class="cls-5" d="M305.355,284.093h3.221a.805.805,0,0,0,0-1.611h-3.221a.805.805,0,0,0,0,1.611Z" transform="translate(-285.221 -259.932)"/>
      <path id="Path_94" data-name="Path 94" class="cls-5" d="M323.011,247.172a.8.8,0,0,0-.805.805V251.2a.805.805,0,0,0,1.611,0v-3.221A.805.805,0,0,0,323.011,247.172Z" transform="translate(-299.656 -231.065)"/>
      <path id="Path_95" data-name="Path 95" class="cls-5" d="M305.355,160.507h3.221a.805.805,0,1,0,0-1.611h-3.221a.805.805,0,0,0,0,1.611Z" transform="translate(-285.221 -158.896)"/>
      <path id="Path_96" data-name="Path 96" class="cls-5" d="M323.011,176.552a.8.8,0,0,0-.805.805v3.221a.805.805,0,0,0,1.611,0v-3.221A.805.805,0,0,0,323.011,176.552Z" transform="translate(-299.656 -173.33)"/>
      <path id="Path_97" data-name="Path 97" class="cls-5" d="M237.957,282.483h-3.221a.805.805,0,0,0,0,1.611h3.221a.805.805,0,1,0,0-1.611Z" transform="translate(-227.487 -259.933)"/>
      <path id="Path_98" data-name="Path 98" class="cls-5" d="M199.424,176.552a.8.8,0,0,0-.805.805v3.221a.805.805,0,0,0,1.611,0v-3.221A.8.8,0,0,0,199.424,176.552Z" transform="translate(-198.619 -173.33)"/>
      <path id="Path_99" data-name="Path 99" class="cls-5" d="M202.647,282.483h-3.221a.805.805,0,0,0,0,1.611h3.221a.805.805,0,0,0,0-1.611Z" transform="translate(-198.62 -259.933)"/>
      <path id="Path_100" data-name="Path 100" class="cls-5" d="M198.62,251.2a.805.805,0,0,0,1.611,0v-3.221a.805.805,0,1,0-1.611,0Z" transform="translate(-198.62 -231.065)"/>
      <path id="Path_101" data-name="Path 101" class="cls-5" d="M323.011,211.862a.8.8,0,0,0-.805.805v3.221a.805.805,0,0,0,1.611,0v-3.221A.805.805,0,0,0,323.011,211.862Z" transform="translate(-299.656 -202.198)"/>
      <path id="Path_102" data-name="Path 102" class="cls-5" d="M270.045,160.507h3.221a.805.805,0,0,0,0-1.611h-3.221a.805.805,0,1,0,0,1.611Z" transform="translate(-256.354 -158.896)"/>
      <path id="Path_103" data-name="Path 103" class="cls-5" d="M198.62,159.7a.8.8,0,0,0,.805.805h3.221a.805.805,0,0,0,0-1.611h-3.221A.805.805,0,0,0,198.62,159.7Z" transform="translate(-198.62 -158.896)"/>
      <path id="Path_104" data-name="Path 104" class="cls-5" d="M270.045,284.093h3.221a.805.805,0,0,0,0-1.611h-3.221a.805.805,0,1,0,0,1.611Z" transform="translate(-256.354 -259.932)"/>
      <path id="Path_105" data-name="Path 105" class="cls-5" d="M233.93,159.7a.8.8,0,0,0,.805.805h3.221a.805.805,0,1,0,0-1.611h-3.221A.805.805,0,0,0,233.93,159.7Z" transform="translate(-227.487 -158.896)"/>
    </g>
    <path id="Path_106" data-name="Path 106" class="cls-1" d="M229.6,190.432l-.013.968-.068,5.206a.646.646,0,0,0,.906.6l1.6-.7,1.431,3.259a.806.806,0,0,0,1.475-.648l-1.431-3.258,1.6-.7a.647.647,0,0,0,.172-1.074l-4.227-3.787-.372-.334A.646.646,0,0,0,229.6,190.432Z" transform="translate(-187.638 -162.411)"/>
  </g>
</svg>
